HIERARCHY
ROOT Hips
{
	OFFSET 0.000000 0.000000 0.000000
	CHANNELS 6 Xposition Yposition Zposition Zrotation Yrotation Xrotation 
	JOINT LowerBack
	{
		OFFSET 0.000000 0.000000 0.000000
		CHANNELS 3 Zrotation Yrotation Xrotation
		JOINT Spine
		{
			OFFSET 0.028270 2.035590 -0.193380
			CHANNELS 3 Zrotation Yrotation Xrotation
			JOINT Spine1
			{
				OFFSET 0.056720 2.048850 -0.042750
				CHANNELS 3 Zrotation Yrotation Xrotation
				JOINT Neck
				{
					OFFSET 0.000000 0.000000 0.000000
					CHANNELS 3 Zrotation Yrotation Xrotation
					JOINT Neck1
					{
						OFFSET -0.054170 1.746240 0.172020
						CHANNELS 3 Zrotation Yrotation Xrotation
						JOINT Head
						{
							OFFSET 0.104070 1.761360 -0.123970
							CHANNELS 3 Zrotation Yrotation Xrotation
							End Site
							{
								OFFSET 0.000000 0.000000 0.000000
							}
						}
					}
				}
				JOINT LeftShoulder
				{
					OFFSET 0.000000 0.000000 0.000000
					CHANNELS 3 Zrotation Yrotation Xrotation
					JOINT LeftArm
					{
						OFFSET 3.362410 1.200890 -0.311210
						CHANNELS 3 Zrotation Yrotation Xrotation
						JOINT LeftForeArm
						{
							OFFSET 4.983000 -0.000000 -0.000000
							CHANNELS 3 Zrotation Yrotation Xrotation
							JOINT LeftHand
							{
								OFFSET 3.483560 -0.000000 -0.000000
								CHANNELS 3 Zrotation Yrotation Xrotation
								JOINT LeftFingerBase
								{
									OFFSET 0.000000 0.000000 0.000000
									CHANNELS 3 Zrotation Yrotation Xrotation
									JOINT LeftHandIndex1
									{
										OFFSET 0.715260 -0.000000 -0.000000
										CHANNELS 3 Zrotation Yrotation Xrotation
										End Site
										{
											OFFSET 0.000000 0.000000 0.000000
										}
									}
								}
								JOINT LThumb
								{
									OFFSET 0.000000 0.000000 0.000000
									CHANNELS 3 Zrotation Yrotation Xrotation
									End Site
									{
										OFFSET 0.000000 0.000000 0.000000
									}
								}
							}
						}
					}
				}
				JOINT RightShoulder
				{
					OFFSET 0.000000 0.000000 0.000000
					CHANNELS 3 Zrotation Yrotation Xrotation
					JOINT RightArm
					{
						OFFSET -3.136600 1.374050 -0.404650
						CHANNELS 3 Zrotation Yrotation Xrotation
						JOINT RightForeArm
						{
							OFFSET -5.241900 -0.000000 -0.000000
							CHANNELS 3 Zrotation Yrotation Xrotation
							JOINT RightHand
							{
								OFFSET -3.444170 -0.000000 -0.000000
								CHANNELS 3 Zrotation Yrotation Xrotation
								JOINT RightFingerBase
								{
									OFFSET 0.000000 0.000000 0.000000
									CHANNELS 3 Zrotation Yrotation Xrotation
									JOINT RightHandIndex1
									{
										OFFSET -0.622530 -0.000000 -0.000000
										CHANNELS 3 Zrotation Yrotation Xrotation
										End Site
										{
											OFFSET 0.000000 0.000000 0.000000
										}
									}
								}
								JOINT RThumb
								{
									OFFSET 0.000000 0.000000 0.000000
									CHANNELS 3 Zrotation Yrotation Xrotation
									End Site
									{
										OFFSET 0.000000 0.000000 0.000000
									}
								}
							}
						}
					}
				}
			}
		}
	}
}
}
MOTION
Frames: 15
Frame Time: 0.008333
24.259651 15.821209 2.286463 124.941210 -85.429459 -102.060958 -7.007439 3.997524 -13.540969 -3.002801 4.313057 -5.407267 -7.260630 4.296552 2.294527 11.199889 -3.670117 -9.868902 -2.851231 -0.209017 -0.610981 0.000000 0.000000 0.000000 -2.900098 29.652058 1.959965 -39.275021 11.314444 -32.467337 -3.101506 -31.254711 0.027309 19.232890 -3.515790 -0.587554 -0.094689 -0.061722 -0.000000 0.000000 0.000000 0.000000 0.000000 0.000000 0.000000 11.875496 6.113214 -0.795563 69.584826 27.881616 46.160192 -179.800473 83.841530 -179.985608 -2.440537 22.275154 -0.522301 0.119842 -0.995797 -0.000000 0.000000 0.000000 0.000000 0.000000 0.000000 0.000000 
24.003905 15.863635 2.273934 122.886075 -85.205949 -100.145461 -7.282958 3.999882 -13.552855 -3.073973 4.360564 -5.425749 -7.281060 4.348774 2.206026 11.203553 -3.783077 -9.905997 -2.821051 -0.206136 -0.620407 0.000000 0.000000 0.000000 -3.016254 29.673682 1.935684 -38.946837 10.681311 -32.917298 -3.020944 -32.268931 0.027397 19.621661 -3.782065 -0.646234 -0.095291 -0.059295 -0.000000 0.000000 0.000000 0.000000 0.000000 0.000000 0.000000 11.750395 6.045414 -0.892337 69.726948 26.900427 45.468848 -179.736531 84.359031 -179.986110 -2.161935 22.307080 -0.462690 0.106162 -0.985926 -0.000000 0.000000 0.000000 0.000000 0.000000 0.000000 0.000000 
23.753763 15.908570 2.264039 121.232713 -84.984667 -98.695767 -7.503475 3.996712 -13.481661 -3.125527 4.393363 -5.425586 -7.283477 4.385830 2.123443 11.170458 -3.892494 -9.943932 -2.796159 -0.203494 -0.630573 0.000000 0.000000 0.000000 -3.137397 29.688504 1.913284 -38.848432 10.011136 -33.438257 -2.929561 -33.364775 0.027337 20.045295 -4.059597 -0.710317 -0.095729 -0.056414 -0.000000 0.000000 0.000000 0.000000 0.000000 0.000000 0.000000 11.620631 5.971567 -0.990364 69.803455 25.937958 44.695288 -179.672168 84.962343 -179.986910 -1.902617 22.379927 -0.407698 0.092539 -0.974272 -0.000000 0.000000 0.000000 0.000000 0.000000 0.000000 0.000000 
23.509578 15.955502 2.256171 119.756626 -84.759258 -97.483951 -7.685579 3.980617 -13.331039 -3.160750 4.405963 -5.407690 -7.267995 4.402389 2.046717 11.106916 -4.004740 -9.977445 -2.777576 -0.201258 -0.639990 0.000000 0.000000 0.000000 -3.253340 29.667626 1.894741 -38.982041 9.352154 -33.994402 -2.828658 -34.558392 0.027069 20.497951 -4.322559 -0.775001 -0.096134 -0.053064 -0.000000 0.000000 0.000000 0.000000 0.000000 0.000000 0.000000 11.500418 5.881716 -1.084162 69.817482 25.012984 43.854831 -179.610244 85.650980 -179.987869 -1.659808 22.474843 -0.356222 0.079375 -0.960684 -0.000000 0.000000 0.000000 0.000000 0.000000 0.000000 0.000000 
23.271024 16.004110 2.250005 118.317691 -84.533056 -96.362085 -7.834451 3.946883 -13.112364 -3.181107 4.394281 -5.373505 -7.236487 4.394470 1.978262 11.020324 -4.124449 -10.004257 -2.765547 -0.199499 -0.647923 0.000000 0.000000 0.000000 -3.356188 29.606073 1.879229 -39.341012 8.711671 -34.554324 -2.720510 -35.841192 0.026554 20.974866 -4.559009 -0.838187 -0.096662 -0.049200 -0.000000 0.000000 0.000000 0.000000 0.000000 0.000000 0.000000 11.398897 5.767551 -1.172491 69.775514 24.130986 42.956537 -179.552705 86.417356 -179.988877 -1.425740 22.573888 -0.306361 0.066756 -0.945096 -0.000000 0.000000 0.000000 0.000000 0.000000 0.000000 0.000000 
23.037464 16.054243 2.245739 116.855853 -84.321196 -95.253951 -7.939592 3.893992 -12.846024 -3.185383 4.355752 -5.325821 -7.192219 4.359473 1.920993 10.917917 -4.253202 -10.022855 -2.759994 -0.198274 -0.653685 0.000000 0.000000 0.000000 -3.445006 29.511655 1.863776 -39.909440 8.079045 -35.088376 -2.608298 -37.192693 0.025799 21.469423 -4.768482 -0.899078 -0.097528 -0.044857 -0.000000 0.000000 0.000000 0.000000 0.000000 0.000000 0.000000 11.320868 5.624855 -1.256827 69.683697 23.283366 42.003726 -179.500616 87.246989 -179.989878 -1.192797 22.661328 -0.256312 0.054609 -0.927537 -0.000000 0.000000 0.000000 0.000000 0.000000 0.000000 0.000000 
22.808536 16.105837 2.242612 115.245766 -84.111901 -94.028247 -8.021619 3.816556 -12.540527 -3.178961 4.288058 -5.266778 -7.139761 4.295147 1.873661 10.813223 -4.399037 -10.030680 -2.761732 -0.197708 -0.656587 0.000000 0.000000 0.000000 -3.522823 29.369255 1.847403 -40.652862 7.474898 -35.552828 -2.494507 -38.615189 0.024823 21.975551 -4.933617 -0.953966 -0.098801 -0.040178 -0.000000 0.000000 0.000000 0.000000 0.000000 0.000000 0.000000 11.285232 5.445085 -1.333655 69.549528 22.470108 41.003799 -179.455124 88.127510 -179.990766 -0.961768 22.727008 -0.206267 0.043265 -0.908364 -0.000000 0.000000 0.000000 0.000000 0.000000 0.000000 0.000000 
22.583059 16.158953 2.240818 113.511509 -83.915112 -92.691976 -8.071980 3.715772 -12.217441 -3.161532 4.191917 -5.200368 -7.083523 4.202028 1.836139 10.713539 -4.561371 -10.026504 -2.770517 -0.197847 -0.656034 0.000000 0.000000 0.000000 -3.597162 29.185913 1.826830 -41.538596 6.888109 -35.917793 -2.382610 -40.086691 0.023696 22.482187 -5.059681 -1.002653 -0.100647 -0.035325 -0.000000 0.000000 0.000000 0.000000 0.000000 0.000000 0.000000 11.294189 5.229269 -1.404988 69.380765 21.672200 39.953244 -179.415890 89.038978 -179.991517 -0.730721 22.766682 -0.156024 0.032660 -0.887919 -0.000000 0.000000 0.000000 0.000000 0.000000 0.000000 0.000000 
22.360158 16.213667 2.240642 111.726138 -83.742147 -91.296856 -8.076409 3.595126 -11.899666 -3.131699 4.069752 -5.130619 -7.027707 4.082337 1.809636 10.623614 -4.746530 -10.012997 -2.785180 -0.198616 -0.652446 0.000000 0.000000 0.000000 -3.692365 28.975910 1.796915 -42.518585 6.301910 -36.140446 -2.276399 -41.588021 0.022506 22.982331 -5.138720 -1.042738 -0.103170 -0.030548 -0.000000 0.000000 0.000000 0.000000 0.000000 0.000000 0.000000 11.346250 4.972359 -1.471917 69.186281 20.880832 38.856697 -179.382297 89.964511 -179.992187 -0.508775 22.786126 -0.107772 0.023073 -0.866627 -0.000000 0.000000 0.000000 0.000000 0.000000 0.000000 0.000000 
22.139839 16.269816 2.240329 109.834686 -83.547474 -89.797344 -8.091449 3.450229 -11.578497 -3.101965 3.924294 -5.059609 -6.975309 3.938817 1.783339 10.556551 -4.945184 -9.981224 -2.807779 -0.200278 -0.643850 0.000000 0.000000 0.000000 -3.778935 28.695663 1.763803 -43.580224 5.760579 -36.221402 -2.175786 -43.116141 0.021333 23.454875 -5.199737 -1.078519 -0.106288 -0.025941 -0.000000 0.000000 0.000000 0.000000 0.000000 0.000000 0.000000 11.457350 4.687290 -1.531817 68.978988 20.072932 37.687165 0.646395 89.115443 0.007303 -0.289921 22.786338 -0.060210 0.014323 -0.845185 -0.000000 0.000000 0.000000 0.000000 0.000000 0.000000 0.000000 
21.920960 16.327374 2.241297 108.065703 -83.370188 -88.389033 -8.065644 3.292926 -11.286710 -3.063316 3.761755 -4.991074 -6.928656 3.777481 1.765956 10.505725 -5.170543 -9.944027 -2.834108 -0.202388 -0.633183 0.000000 0.000000 0.000000 -3.904789 28.402839 1.717120 -44.666163 5.191705 -36.111735 -2.085747 -44.627091 0.020253 23.897891 -5.231820 -1.107194 -0.110132 -0.021697 -0.000000 0.000000 0.000000 0.000000 0.000000 0.000000 0.000000 11.603843 4.361602 -1.589424 68.768041 19.253559 36.460545 0.671730 88.212154 0.006848 -0.097921 22.789642 -0.018629 0.006928 -0.823867 -0.000000 0.000000 0.000000 0.000000 0.000000 0.000000 0.000000 
21.703451 16.386059 2.243135 106.512847 -83.202057 -87.157870 -8.007253 3.127207 -11.029409 -3.018136 3.587347 -4.929172 -6.888495 3.603303 1.747211 10.468239 -5.411354 -9.895060 -2.864456 -0.205082 -0.618695 0.000000 0.000000 0.000000 -4.066441 28.062961 1.661227 -45.758502 4.646209 -35.804128 -2.005853 -46.125711 0.019380 24.294531 -5.248072 -1.130561 -0.114656 -0.018013 -0.000000 0.000000 0.000000 0.000000 0.000000 0.000000 0.000000 11.775340 4.011565 -1.644006 68.566502 18.398902 35.155174 0.694720 87.339897 0.006414 0.065608 22.808586 0.016772 0.000770 -0.803120 -0.000000 0.000000 0.000000 0.000000 0.000000 0.000000 0.000000 
21.487163 16.445506 2.245693 105.277361 -83.041703 -86.200371 -7.918466 2.958424 -10.809676 -2.967671 3.406889 -4.873430 -6.855072 3.422378 1.732765 10.443366 -5.676417 -9.844132 -2.896433 -0.208019 -0.603235 0.000000 0.000000 0.000000 -4.264586 27.709115 1.593383 -46.840452 4.067336 -35.290388 -1.937763 -47.567748 0.018706 24.636530 -5.270641 -1.152821 -0.119834 -0.014733 -0.000000 0.000000 0.000000 0.000000 0.000000 0.000000 0.000000 11.963598 3.628956 -1.697081 68.383662 17.524671 33.772384 0.716311 86.502605 0.005950 0.184198 22.860190 0.042498 -0.003835 -0.783220 -0.000000 0.000000 0.000000 0.000000 0.000000 0.000000 0.000000 
21.271977 16.505334 2.249123 104.463983 -82.897797 -85.613462 -7.787995 2.792558 -10.633058 -2.909968 3.225155 -4.827098 -6.827766 3.239294 1.714911 10.421453 -5.956057 -9.788052 -2.929699 -0.211244 -0.585806 0.000000 0.000000 0.000000 -4.501266 27.316001 1.517425 -47.900175 3.499790 -34.566392 -1.880019 -48.961933 0.018285 24.913958 -5.302513 -1.174070 -0.125596 -0.011942 -0.000000 0.000000 0.000000 0.000000 0.000000 0.000000 0.000000 12.150334 3.227894 -1.747786 68.230128 16.618613 32.297936 0.737078 85.705047 0.005421 0.253778 22.957276 0.057747 -0.006962 -0.764336 -0.000000 0.000000 0.000000 0.000000 0.000000 0.000000 0.000000 
21.058002 16.565021 2.253430 104.135057 -82.776330 -85.457650 -7.609254 2.633933 -10.499427 -2.843890 3.045781 -4.790907 -6.805637 3.057728 1.691280 10.395279 -6.246530 -9.728359 -2.963475 -0.214672 -0.566863 0.000000 0.000000 0.000000 -4.771630 26.877348 1.435863 -48.933447 2.955373 -33.635810 -1.831115 -50.303526 0.018098 25.122205 -5.351675 -1.195909 -0.131853 -0.009525 -0.000000 0.000000 0.000000 0.000000 0.000000 0.000000 0.000000 12.322226 2.814329 -1.795322 68.114258 15.683460 30.724600 0.757225 84.946653 0.004801 0.267870 23.108310 0.061421 -0.008591 -0.746506 -0.000000 0.000000 0.000000 0.000000 0.000000 0.000000 0.000000 
